<svg width="16" height="16" viewBox="0 0 16 16" xmlns="http://www.w3.org/2000/svg">
  <!-- 放大镜：作为基础搜索图标，使用 100% 填充的 currentColor -->
  <path fill="currentColor" d="M15.7 14.3l-3.1-3.1C13.5 10 14 8.6 14 7c0-3.9-3.1-7-7-7S0 3.1 0 7s3.1 7 7 7c1.6 0 3-.5 4.2-1.4l3.1 3.1c.2.2.5.3.7.3s.5-.1.7-.3c.4-.4.4-1 0-1.4zM7 12c-2.8 0-5-2.2-5-5s2.2-5 5-5 5 2.2 5 5-2.2 5-5 5z"/>
  
  <!-- 右下角 Diff 标识：采用实心的 '+' 和 '-' 组合，非常醒目 -->
  <g transform="translate(8, 8)">
    <!-- 背景小方块，增加层次感 -->
    <rect fill="currentColor" x="0" y="0" width="8" height="8" rx="1" opacity="0.3"/>
    <!-- 加号 -->
    <path fill="currentColor" d="M4 1v4M2 3h4" stroke="currentColor" stroke-width="1.2" stroke-linecap="round"/>
    <!-- 减号 -->
    <path fill="currentColor" d="M2 6h4" stroke="currentColor" stroke-width="1.2" stroke-linecap="round"/>
  </g>
</svg>